<?xml version="1.0" encoding="utf-8"?>
<!-- Generator: Adobe Illustrator 17.0.0, SVG Export Plug-In . SVG Version: 6.00 Build 0)  -->
<!DOCTYPE svg PUBLIC "-//W3C//DTD SVG 1.1//EN" "http://www.w3.org/Graphics/SVG/1.1/DTD/svg11.dtd">
<svg version="1.1" id="Layer_1" xmlns="http://www.w3.org/2000/svg" xmlns:xlink="http://www.w3.org/1999/xlink" x="0px" y="0px"
	 width="456.4px" height="456.4px" viewBox="0 0 456.4 456.4" style="enable-background:new 0 0 456.4 456.4;" xml:space="preserve"
	>
<style type="text/css">
	.st0{fill:#FFFFFF;}
</style>
<path class="st0" d="M228.2,456.4c58.4,0,100.7-41.2,100.7-97.9c0-53.6-35.9-89.5-70.6-124.1l-6.2-6.2l2.5-2.5c1.6-1.6,3.3-3.3,5-5
	c32.5-32.4,69.4-69.1,69.4-117.2C328.9,45.5,284.7,0,228.2,0c-59.3,0-100.7,40.3-100.7,97.9c0,53.6,35.9,89.4,70.6,124.1l6.2,6.2
	l-2.5,2.5c-1.6,1.6-3.3,3.3-5,5c-32.5,32.4-69.4,69.1-69.4,117.2C127.5,410.9,171.7,456.4,228.2,456.4z M162.7,100.7
	c0-36.7,27.5-63.4,65.5-63.4c36.1,0,65.5,29.4,65.5,65.5c0,35.4-26.2,62-49.4,85.5c-4.8,4.9-9.3,9.4-13.6,14.1l-2.4,2.6l-4.9-4.8
	C196.4,173.9,162.7,141.2,162.7,100.7z M212.1,268.1c4.8-4.9,9.3-9.5,13.6-14.1l2.4-2.6l4.9,4.8c27,26.3,60.7,59,60.7,99.5
	c0,36.7-27.5,63.4-65.5,63.4c-36.1,0-65.5-29.4-65.5-65.5C162.7,318.2,188.9,291.6,212.1,268.1z"/>
<path class="st0" d="M100.7,293.7c-36.7,0-63.4-27.5-63.4-65.5c0-36.1,29.4-65.5,65.5-65.5c17.1,0,32.2,6.2,45.9,15.1
	c-10.6-14.5-19.2-30.2-24-48c-6.8-1.6-13.8-2.4-21.2-2.4C45.5,127.5,0,171.7,0,228.2c0,58.4,41.2,100.7,97.9,100.7
	c9.2,0,17.9-1.1,26.2-3c4.7-17.3,13.5-33,24.4-47.5C133.9,287.5,118,293.7,100.7,293.7z"/>
<path class="st0" d="M456.4,228.2c0-59.3-40.3-100.7-97.9-100.7c-9.2,0-17.9,1.1-26.2,3c-4.7,17.3-13.5,33-24.4,47.5
	c14.6-9.1,30.5-15.3,47.8-15.3c36.7,0,63.4,27.5,63.4,65.5c0,36.1-29.4,65.5-65.5,65.5c-17.1,0-32.2-6.2-45.9-15.1
	c10.6,14.5,19.2,30.2,24,48c6.8,1.6,13.8,2.4,21.2,2.4C410.9,328.9,456.4,284.7,456.4,228.2z"/>
<g>
</g>
<g>
</g>
<g>
</g>
<g>
</g>
<g>
</g>
<g>
</g>
</svg>
