<?xml version="1.0" encoding="utf-8"?>
<!-- Generator: Adobe Illustrator 16.0.0, SVG Export Plug-In . SVG Version: 6.00 Build 0)  -->
<!DOCTYPE svg PUBLIC "-//W3C//DTD SVG 1.1//EN" "http://www.w3.org/Graphics/SVG/1.1/DTD/svg11.dtd">
<svg version="1.1" id="Layer_1" xmlns="http://www.w3.org/2000/svg" xmlns:xlink="http://www.w3.org/1999/xlink" x="0px" y="0px"
	 width="456.4px" height="456.4px" viewBox="0 0 456.4 456.4" style="enable-background:new 0 0 456.4 456.4;" xml:space="preserve"
	>
<style type="text/css">
<![CDATA[
	.st0{display:none;fill:#FF6464;}
	.st1{fill:none;stroke:#FFFFFF;stroke-width:7;stroke-miterlimit:10;}
	.st2{fill:none;stroke:#FFFFFF;stroke-miterlimit:10;}
	.st3{fill:#FFFFFF;stroke:#FFFFFF;stroke-miterlimit:10;}
]]>
</style>
<rect class="st0" width="456.4" height="456.4"/>
<g>
	<path class="st2" d="M192.777,300.704c1.843,0.206,3.787,0.307,5.837,0.307c2.044,0,3.993,0,5.836,0
		c5.323,0,9.878-1.329,13.67-3.993c3.787-2.659,5.683-8.188,5.683-16.589V116.388h33.791v161.583
		c0,10.857-1.334,19.766-3.993,26.726c-2.664,6.965-6.249,12.441-10.752,16.435c-4.507,3.993-9.677,6.812-15.513,8.448
		c-5.836,1.642-11.932,2.457-18.278,2.457c-3.072,0-5.836,0-8.294,0s-5.122-0.206-7.987-0.614V300.704z"/>
</g>
<g>
	<path class="st3" d="M183.771,292.825c1.843,0.206,3.787,0.307,5.837,0.307c2.044,0,3.993,0,5.836,0
		c5.323,0,9.878-1.329,13.67-3.993c3.787-2.659,5.683-8.188,5.683-16.589V108.509h33.792v161.583
		c0,10.857-1.335,19.766-3.993,26.726c-2.664,6.965-6.25,12.441-10.752,16.435c-4.508,3.993-9.677,6.812-15.514,8.448
		c-5.836,1.642-11.932,2.457-18.278,2.457c-3.072,0-5.836,0-8.294,0s-5.122-0.206-7.987-0.614V292.825z"/>
</g>
<rect x="4.7" y="4.7" class="st1" width="447" height="447"/>
<rect x="56.951" y="62.021" class="st1" width="336.279" height="336.278"/>
</svg>
