<?xml version="1.0" encoding="utf-8"?>
<!-- Generator: Adobe Illustrator 17.0.0, SVG Export Plug-In . SVG Version: 6.00 Build 0)  -->
<!DOCTYPE svg PUBLIC "-//W3C//DTD SVG 1.1//EN" "http://www.w3.org/Graphics/SVG/1.1/DTD/svg11.dtd">
<svg version="1.1" id="Layer_1" xmlns="http://www.w3.org/2000/svg" xmlns:xlink="http://www.w3.org/1999/xlink" x="0px" y="0px"
	 width="408px" height="674.6px" viewBox="0 0 408 674.6" style="enable-background:new 0 0 408 674.6;" xml:space="preserve">
<style type="text/css">
	.st0{fill:#FFFFFF;}
</style>
<path class="st0" d="M351.6,585.4c-4.9,0-9.6,0.8-14.1,2.3L228,405.1c7.4-6.5,12.1-16,12.1-26.7c0-19.6-16-35.6-35.6-35.6
	c-19.6,0-35.6,16-35.6,35.6c0,10.6,4.7,20.1,12.1,26.7L71.5,587.7c-4.4-1.5-9.1-2.3-14.1-2.3c-24.2,0-43.9,19.7-43.9,43.9
	s19.7,43.9,43.9,43.9c21,0,38.5-14.8,42.9-34.4h208.4c4.4,19.7,21.9,34.4,42.9,34.4c24.2,0,43.9-19.7,43.9-43.9
	S375.8,585.4,351.6,585.4z M227.8,498.5c2.2-3.9,3.5-8.4,3.5-13.3c0-12.3-8.3-22.7-19.7-25.8l1.3-46.4c1.1-0.3,2.3-0.6,3.4-1
	l95.3,166.3L227.8,498.5z M196.1,413l1.3,46.4c-11.3,3.1-19.7,13.5-19.7,25.8c0,4.8,1.3,9.4,3.5,13.3l-83.8,79.8L192.7,412
	C193.8,412.4,194.9,412.7,196.1,413z M94.3,605.5l96.5-97.2c4,2.4,8.7,3.8,13.7,3.8c5,0,9.7-1.4,13.7-3.8l96.5,97.2
	c-2.8,4.3-4.9,9.2-6,14.4H100.3C99.2,614.7,97.1,609.8,94.3,605.5z"/>
<path class="st0" d="M361.5,4.4c-22.5,0-41.3,16-45.7,37.2H93.2C88.8,20.4,70,4.4,47.5,4.4C21.8,4.4,0.8,25.3,0.8,51.1
	s20.9,46.7,46.7,46.7c6.1,0,11.9-1.2,17.2-3.3l115.2,175.8c-6.8,6.5-11,15.6-11,25.7c0,19.6,16,35.6,35.6,35.6
	c19.6,0,35.6-16,35.6-35.6c0-10.1-4.2-19.2-11-25.7L344.3,94.4c5.3,2.1,11.1,3.3,17.2,3.3c25.7,0,46.7-20.9,46.7-46.7
	S387.2,4.4,361.5,4.4z M85.2,78.5l92.8,42.3c-0.3,1.6-0.5,3.3-0.5,5c0,12.5,8.5,23,20.1,26.1l-1.9,109.5c-1.5,0.4-2.9,0.9-4.3,1.4
	L79.7,84.8C81.7,82.9,83.5,80.8,85.2,78.5z M213.3,261.4l-1.9-109.5c11.5-3.1,20.1-13.6,20.1-26.1c0-1.7-0.2-3.4-0.5-5l92.8-42.3
	c1.6,2.2,3.5,4.3,5.5,6.3L217.6,262.9C216.2,262.3,214.8,261.8,213.3,261.4z M316.4,63l-91.3,45.4c-5-5.8-12.3-9.5-20.6-9.5
	c-8.2,0-15.6,3.7-20.6,9.5L92.6,63c0.2-0.8,0.4-1.6,0.6-2.5h222.6C316,61.4,316.2,62.2,316.4,63z"/>
<g>
</g>
<g>
</g>
<g>
</g>
<g>
</g>
<g>
</g>
<g>
</g>
</svg>
