<?xml version="1.0" encoding="utf-8"?>
<!-- Generator: Adobe Illustrator 16.0.0, SVG Export Plug-In . SVG Version: 6.00 Build 0)  -->
<!DOCTYPE svg PUBLIC "-//W3C//DTD SVG 1.1//EN" "http://www.w3.org/Graphics/SVG/1.1/DTD/svg11.dtd">
<svg version="1.1" id="Layer_1" xmlns="http://www.w3.org/2000/svg" xmlns:xlink="http://www.w3.org/1999/xlink" x="0px" y="0px"
	 width="454.2px" height="66.1px" viewBox="0 0 454.2 66.1" style="enable-background:new 0 0 454.2 66.1;" xml:space="preserve">
<style type="text/css">
<![CDATA[
	.st0{fill:#FFFFFF;}
]]>
</style>
<g>
	<path class="st0" d="M52.9,7.9v50.4H39.6V39.1H20.8v19.2H7.5V7.9h13.3v19.3h18.7V7.9H52.9z"/>
	<path class="st0" d="M98.7,7.9v11.5h-23v7.7h20.8v11.4H75.7v8.2h23.4v11.5H62.4V7.9H98.7z"/>
	<path class="st0" d="M126.9,7.9c4.5,0,8.4,0.6,11.7,1.9c3.3,1.2,6,3,8.2,5.2s3.8,4.9,4.8,8c1.1,3.1,1.6,6.5,1.6,10.1
		c0,3.7-0.5,7.1-1.6,10.2c-1.1,3.1-2.7,5.7-4.8,8c-2.2,2.2-4.9,4-8.2,5.2c-3.3,1.3-7.2,1.9-11.7,1.9h-20.1V7.9H126.9z M139.6,33.1
		c0-4.8-1.1-8.2-3.3-10.4c-2.2-2.2-5.3-3.3-9.4-3.3h-6.8v27.4h6.8c4,0,7.2-1.1,9.4-3.3C138.5,41.4,139.6,37.9,139.6,33.1z"/>
	<path class="st0" d="M160.4,58.3V7.9h21.2c2.5,0,5.1,0.3,7.5,0.8c2.5,0.5,4.7,1.4,6.6,2.7c1.9,1.3,3.5,3,4.7,5.2
		c1.2,2.2,1.8,4.9,1.8,8.2c0,2.1-0.2,4-0.7,5.6c-0.5,1.6-1.2,3-2,4.2c-0.9,1.2-1.9,2.3-3.1,3.1c-1.2,0.9-2.5,1.6-3.9,2.2l13.9,18.3
		h-15l-12-16.4h-5.8v16.4H160.4z M173.7,31.1h8.5c1.9,0,3.5-0.5,4.6-1.4c1.2-1,1.8-2.4,1.8-4.4c0-2-0.6-3.4-1.8-4.4
		c-1.2-1-2.7-1.4-4.6-1.4h-8.5V31.1z"/>
	<path class="st0" d="M208.2,33.1c0-3.5,0.6-6.8,1.7-10c1.1-3.2,2.8-6,5.1-8.4c2.3-2.4,5.1-4.3,8.4-5.8c3.4-1.4,7.3-2.1,11.8-2.1
		S243.6,7.6,247,9c3.4,1.4,6.2,3.3,8.4,5.8c2.3,2.4,3.9,5.2,5.1,8.4c1.1,3.2,1.7,6.5,1.7,10c0,3.5-0.6,6.8-1.7,10
		c-1.1,3.2-2.8,6-5.1,8.4c-2.3,2.4-5.1,4.3-8.4,5.8c-3.4,1.4-7.3,2.1-11.8,2.1s-8.4-0.7-11.8-2.1c-3.4-1.4-6.2-3.3-8.4-5.8
		c-2.3-2.4-3.9-5.2-5.1-8.4C208.8,40,208.2,36.6,208.2,33.1z M248.5,33.1c0-2-0.3-3.9-0.9-5.6c-0.6-1.7-1.4-3.2-2.5-4.5
		s-2.5-2.3-4.2-3c-1.7-0.7-3.6-1-5.8-1s-4.1,0.3-5.8,1c-1.7,0.7-3.1,1.7-4.2,3c-1.1,1.3-1.9,2.8-2.5,4.5c-0.6,1.7-0.9,3.6-0.9,5.6
		c0,2,0.3,3.9,0.9,5.6c0.6,1.7,1.4,3.2,2.5,4.5c1.1,1.3,2.5,2.3,4.2,3c1.7,0.7,3.6,1,5.8,1s4.1-0.3,5.8-1c1.7-0.7,3.1-1.7,4.2-3
		s1.9-2.8,2.5-4.5C248.2,37,248.5,35.2,248.5,33.1z"/>
	<path class="st0" d="M269.2,58.3V7.9h12.6l19.7,28.9c-0.1-1.2-0.2-2.5-0.2-4c0-1.5-0.1-2.9-0.1-4.3V7.9h13.3v50.4h-12.6l-19.7-28.9
		c0.1,1.2,0.2,2.5,0.2,4c0,1.5,0.1,2.9,0.1,4.3v20.6H269.2z"/>
	<path class="st0" d="M328.6,7.9v50.4h-1.8V7.9H328.6z"/>
	<path class="st0" d="M383.2,7.9v33c0,3.4-0.5,6.2-1.5,8.5c-1,2.3-2.4,4.2-4.2,5.6c-1.8,1.4-3.9,2.4-6.4,3.1
		c-2.4,0.6-5.1,0.9-7.8,0.9c-2.8,0-5.5-0.3-7.9-0.9c-2.4-0.6-4.5-1.6-6.4-3.1c-1.8-1.4-3.3-3.3-4.3-5.6c-1-2.3-1.5-5.1-1.5-8.5v-33
		h1.8v33c0,3.1,0.5,5.7,1.4,7.7s2.2,3.8,3.8,5.1c1.6,1.3,3.6,2.2,5.8,2.8c2.2,0.6,4.7,0.8,7.3,0.8c2.6,0,5-0.3,7.2-0.8
		s4.2-1.5,5.8-2.8c1.6-1.3,2.9-3,3.8-5.1s1.4-4.7,1.4-7.7v-33H383.2z"/>
	<path class="st0" d="M447.2,7.9v50.4h-1.8V11.5L423,44.2h-1.1l-22.4-32.7v46.8h-1.8V7.9h1.4L422.4,42l23.4-34.1H447.2z"/>
</g>
<g>
</g>
<g>
</g>
<g>
</g>
<g>
</g>
<g>
</g>
<g>
</g>
</svg>
